<svg xmlns="http://www.w3.org/2000/svg" xmlns:xlink="http://www.w3.org/1999/xlink" width="150" height="27" viewBox="0 0 150 27">
  <defs>
    <clipPath id="clip-logo">
      <rect width="150" height="27"/>
    </clipPath>
  </defs>
  <g id="logo" clip-path="url(#clip-logo)">
    <g id="Group_15" data-name="Group 15" transform="translate(8 -6)">
      <path id="Path_66" data-name="Path 66" d="M6.08.213c3.2,0,5.227-2.251,5.227-5.625S9.276-11.051,6.08-11.051.852-8.793.852-5.412,2.884.213,6.08.213Zm.014-2.06c-1.768,0-2.635-1.577-2.635-3.572s.866-3.594,2.635-3.594c1.74,0,2.607,1.6,2.607,3.594S7.834-1.847,6.094-1.847ZM13.48,3.31a.7.7,0,0,0,.781.781H15.27a.7.7,0,0,0,.781-.781V-1.719h.107A3.288,3.288,0,0,0,19.283.192c2.571,0,4.5-2.038,4.5-5.632,0-3.636-1.982-5.611-4.5-5.611a3.236,3.236,0,0,0-3.118,1.946h-.149v-1.023a.7.7,0,0,0-.781-.781h-.966a.7.7,0,0,0-.781.781ZM16-5.455c0-2.116.909-3.487,2.564-3.487,1.712,0,2.592,1.456,2.592,3.487s-.895,3.537-2.592,3.537C16.925-1.918,16-3.338,16-5.455ZM30.8.213c2.23,0,3.849-.959,4.517-2.472.178-.4-.107-.7-.653-.767l-.866-.1a.984.984,0,0,0-.973.5,2.425,2.425,0,0,1-1.989.838,2.687,2.687,0,0,1-2.784-2.962h6.818a.7.7,0,0,0,.781-.781V-5.54c0-3.828-2.3-5.511-4.986-5.511-3.125,0-5.163,2.294-5.163,5.661C25.5-1.967,27.514.213,30.8.213Zm-2.741-6.7A2.622,2.622,0,0,1,30.7-9.048a2.431,2.431,0,0,1,2.486,2.564ZM40.4-6.392a2.24,2.24,0,0,1,2.308-2.486,2.054,2.054,0,0,1,2.124,2.33V-.781A.7.7,0,0,0,45.611,0h1.009A.7.7,0,0,0,47.4-.781V-6.946c.007-2.614-1.484-4.105-3.736-4.105a3.274,3.274,0,0,0-3.253,2h-.128v-1.072a.7.7,0,0,0-.781-.781h-.895a.7.7,0,0,0-.781.781V-.781A.7.7,0,0,0,38.608,0h1.009A.7.7,0,0,0,40.4-.781ZM59.034.192a3.288,3.288,0,0,0,3.125-1.911h.156v.938A.7.7,0,0,0,63.1,0h.966a.7.7,0,0,0,.781-.781V-13.764a.7.7,0,0,0-.781-.781H63.047a.7.7,0,0,0-.781.781v4.659h-.107a3.236,3.236,0,0,0-3.118-1.946c-2.521,0-4.5,1.974-4.5,5.611C54.538-1.847,56.463.192,59.034.192Zm.717-2.109c-1.7,0-2.592-1.491-2.592-3.537s.881-3.487,2.592-3.487c1.655,0,2.564,1.371,2.564,3.487S61.392-1.918,59.751-1.918ZM72.422.213c2.23,0,3.849-.959,4.517-2.472.178-.4-.107-.7-.653-.767l-.866-.1a.984.984,0,0,0-.973.5,2.425,2.425,0,0,1-1.989.838,2.687,2.687,0,0,1-2.784-2.962h6.818a.7.7,0,0,0,.781-.781V-5.54c0-3.828-2.3-5.511-4.986-5.511-3.125,0-5.163,2.294-5.163,5.661C67.124-1.967,69.134.213,72.422.213Zm-2.741-6.7a2.622,2.622,0,0,1,2.642-2.564,2.431,2.431,0,0,1,2.486,2.564ZM87.209-7.933c.54-.057.824-.412.611-.916-.6-1.364-1.989-2.2-4.141-2.2-2.628,0-4.418,1.293-4.411,3.31-.007,1.591.973,2.642,3.068,3.075l1.861.391c1,.22,1.47.625,1.47,1.243,0,.746-.81,1.307-2.031,1.307a2.1,2.1,0,0,1-1.911-.866c-.249-.4-.483-.6-.937-.561l-.973.092c-.533.05-.831.4-.625.9.6,1.506,2.166,2.372,4.453,2.372C86.371.213,88.3-1.2,88.3-3.267c-.007-1.555-1.009-2.507-3.068-2.955l-1.861-.4c-1.108-.249-1.548-.632-1.541-1.264-.007-.739.81-1.25,1.882-1.25a2.041,2.041,0,0,1,1.726.767.938.938,0,0,0,.952.526Zm4.51-4.524A1.444,1.444,0,0,0,93.2-13.849a1.445,1.445,0,0,0-1.484-1.4,1.447,1.447,0,0,0-1.491,1.4A1.445,1.445,0,0,0,91.719-12.457ZM90.426-.781A.7.7,0,0,0,91.207,0h1.009A.7.7,0,0,0,93-.781v-9.347a.7.7,0,0,0-.781-.781H91.207a.7.7,0,0,0-.781.781Zm9.957,5.1c2.947,0,5.121-1.349,5.121-4.141V-10.128a.7.7,0,0,0-.781-.781h-.973a.7.7,0,0,0-.781.781v1.023h-.142a3.259,3.259,0,0,0-3.132-1.946c-2.521,0-4.5,1.974-4.5,5.561,0,3.558,1.982,5.334,4.5,5.334a3.243,3.243,0,0,0,3.139-1.8h.128V.107c0,1.605-1.065,2.266-2.528,2.266a2.776,2.776,0,0,1-2.18-.824.92.92,0,0,0-1.009-.391l-.831.2c-.526.128-.767.518-.49.98C96.626,3.487,98.1,4.318,100.384,4.318Zm.021-6.491c-1.7,0-2.592-1.321-2.592-3.331,0-1.982.881-3.438,2.592-3.438,1.655,0,2.564,1.371,2.564,3.438S102.045-2.173,100.4-2.173Zm10.313-4.219a2.24,2.24,0,0,1,2.308-2.486,2.054,2.054,0,0,1,2.124,2.33V-.781A.7.7,0,0,0,115.93,0h1.009a.7.7,0,0,0,.781-.781V-6.946c.007-2.614-1.484-4.105-3.736-4.105a3.274,3.274,0,0,0-3.253,2H110.6v-1.072a.7.7,0,0,0-.781-.781h-.895a.7.7,0,0,0-.781.781V-.781a.7.7,0,0,0,.781.781h1.009a.7.7,0,0,0,.781-.781Z" transform="translate(22 26)" fill="#14161b"/>
      <g id="symbols-svgrepo-com" transform="translate(-245.379 -230.536)">
        <path id="must" d="M334.79,403.615a3,3,0,0,0,2.883.247,3.1,3.1,0,0,0,1.217-1l.082-.11.082.11h0a3.1,3.1,0,0,0,1.217,1,3,3,0,0,0,2.884-.247.617.617,0,0,0-.117-1.087,2.741,2.741,0,0,1-1.125-.871l-.542-.621a3.316,3.316,0,0,0-4.8,0l-.542.621h0a2.744,2.744,0,0,1-1.125.871.617.617,0,0,0-.116,1.087Z" transform="translate(-89.594 -150.444)" fill="#14161b"/>
        <path id="Path_10" data-name="Path 10" d="M327.169,350.989a1.371,1.371,0,1,1-1.372-1.372,1.371,1.371,0,0,1,1.372,1.372" transform="translate(-80.191 -103.483)" fill="#14161b"/>
        <path id="Path_11" data-name="Path 11" d="M438.009,350.989a1.372,1.372,0,1,1-1.371-1.372,1.372,1.372,0,0,1,1.371,1.372" transform="translate(-183.487 -103.483)" fill="#14161b"/>
        <path id="Path_12" data-name="Path 12" d="M498.812,502.3a1.543,1.543,0,1,1-1.543-1.543,1.543,1.543,0,0,1,1.543,1.543" transform="translate(-239.832 -244.337)" fill="#14161b"/>
        <path id="Path_13" data-name="Path 13" d="M244.616,260.141a29.047,29.047,0,0,0,4.763.395c.844,0,1.69-.038,2.534-.113a1.378,1.378,0,0,0-.267-2.743c-.754.069-1.512.1-2.266.1a26.3,26.3,0,0,1-4.313-.343,4.316,4.316,0,0,1-3.573-3.562,26.229,26.229,0,0,1,0-8.627,4.317,4.317,0,0,1,3.573-3.573,26.24,26.24,0,0,1,8.624,0,4.317,4.317,0,0,1,3.576,3.573,26.306,26.306,0,0,1,.343,4.313,26.042,26.042,0,0,1-.134,2.623,1.378,1.378,0,0,0,2.743.267,28.59,28.59,0,0,0,.134-2.89,29.05,29.05,0,0,0-.395-4.763,7.05,7.05,0,0,0-5.829-5.829,28.984,28.984,0,0,0-9.525,0,7.049,7.049,0,0,0-5.829,5.829,28.975,28.975,0,0,0,0,9.529,7.049,7.049,0,0,0,5.843,5.812Z" transform="translate(0 0)" fill="#14161b"/>
      </g>
    </g>
  </g>
</svg>
