<svg xmlns="http://www.w3.org/2000/svg" xmlns:xlink="http://www.w3.org/1999/xlink" width="132" height="49" viewBox="0 0 132 49">
  <defs>
    <linearGradient id="linear-gradient" x2="1" y2="1" gradientUnits="objectBoundingBox">
      <stop offset="0" stop-color="#14161b"/>
      <stop offset="1" stop-color="#8f8f01"/>
    </linearGradient>
    <clipPath id="clip-banner4">
      <rect width="132" height="49"/>
    </clipPath>
  </defs>
  <g id="banner4" clip-path="url(#clip-banner4)">
    <g id="Path_138" data-name="Path 138" fill="url(#linear-gradient)">
      <path d="M 124 48.5 L 8 48.5 C 3.86448335647583 48.5 0.5 45.13551712036133 0.5 41 L 0.5 8 C 0.5 3.86448335647583 3.86448335647583 0.5 8 0.5 L 124 0.5 C 128.1355133056641 0.5 131.5 3.86448335647583 131.5 8 L 131.5 41 C 131.5 45.13551712036133 128.1355133056641 48.5 124 48.5 Z" stroke="none"/>
      <path d="M 8 1 C 4.140182495117188 1 1 4.140182495117188 1 8 L 1 41 C 1 44.85981750488281 4.140182495117188 48 8 48 L 124 48 C 127.8598175048828 48 131 44.85981750488281 131 41 L 131 8 C 131 4.140182495117188 127.8598175048828 1 124 1 L 8 1 M 8 0 L 124 0 C 128.4182739257812 0 132 3.58172607421875 132 8 L 132 41 C 132 45.41827392578125 128.4182739257812 49 124 49 L 8 49 C 3.58172607421875 49 0 45.41827392578125 0 41 L 0 8 C 0 3.58172607421875 3.58172607421875 0 8 0 Z" stroke="none" fill="#14161b"/>
    </g>
    <g id="symbols-svgrepo-com" transform="translate(-232.135 -232.556)">
      <path id="must" d="M334.977,406.078a5.054,5.054,0,0,0,4.853.415,5.225,5.225,0,0,0,2.049-1.685l.139-.184.139.185h0a5.224,5.224,0,0,0,2.049,1.685,5.055,5.055,0,0,0,4.853-.415,1.039,1.039,0,0,0-.2-1.83,4.614,4.614,0,0,1-1.893-1.466l-.912-1.044a5.582,5.582,0,0,0-8.08,0l-.912,1.044h0a4.618,4.618,0,0,1-1.893,1.466,1.039,1.039,0,0,0-.2,1.83Z" transform="translate(-85.124 -142.939)" fill="#fff"/>
      <path id="Path_10" data-name="Path 10" d="M329.043,351.926a2.308,2.308,0,1,1-2.308-2.308,2.308,2.308,0,0,1,2.308,2.308" transform="translate(-76.19 -98.321)" fill="#fff"/>
      <path id="Path_11" data-name="Path 11" d="M439.883,351.926a2.308,2.308,0,1,1-2.308-2.308,2.308,2.308,0,0,1,2.308,2.308" transform="translate(-174.334 -98.321)" fill="#fff"/>
      <path id="Path_12" data-name="Path 12" d="M500.92,503.355a2.6,2.6,0,1,1-2.6-2.6,2.6,2.6,0,0,1,2.6,2.6" transform="translate(-227.868 -232.148)" fill="#fff"/>
      <path id="Path_13" data-name="Path 13" d="M248.876,274.871a48.889,48.889,0,0,0,8.016.664c1.42,0,2.845-.064,4.265-.191a2.319,2.319,0,0,0-.45-4.617c-1.269.115-2.545.173-3.815.173a44.267,44.267,0,0,1-7.26-.577,7.265,7.265,0,0,1-6.014-6,44.146,44.146,0,0,1,0-14.52,7.266,7.266,0,0,1,6.014-6.014,44.164,44.164,0,0,1,14.514,0,7.266,7.266,0,0,1,6.019,6.014,44.272,44.272,0,0,1,.577,7.26,43.812,43.812,0,0,1-.225,4.415,2.32,2.32,0,0,0,4.617.45,48.119,48.119,0,0,0,.225-4.865,48.9,48.9,0,0,0-.664-8.016,11.865,11.865,0,0,0-9.81-9.811,48.782,48.782,0,0,0-16.032,0,11.865,11.865,0,0,0-9.81,9.811,48.768,48.768,0,0,0,0,16.038,11.864,11.864,0,0,0,9.834,9.782Z" transform="translate(0 0)" fill="#fff"/>
    </g>
    <path id="Path_136" data-name="Path 136" d="M14.432-7.273c0-4.7-2.869-7.472-6.683-7.472s-6.683,2.77-6.683,7.472S3.928.2,7.749.2,14.432-2.571,14.432-7.273Zm-2.649,0c0,3.31-1.662,5.107-4.034,5.107s-4.034-1.8-4.034-5.107,1.669-5.107,4.034-5.107S11.783-10.582,11.783-7.273ZM21.861,0c4.432,0,7.06-2.741,7.06-7.287s-2.628-7.259-6.96-7.259H17.713a.7.7,0,0,0-.781.781V-.781A.7.7,0,0,0,17.713,0ZM19.567-2.28v-9.986h2.244c2.955,0,4.5,1.648,4.5,4.979S24.766-2.28,21.733-2.28ZM31.42-.781A.7.7,0,0,0,32.2,0H39.68a.7.7,0,0,0,.781-.781v-.646a.7.7,0,0,0-.781-.781H34.055V-13.764a.7.7,0,0,0-.781-.781H32.2a.7.7,0,0,0-.781.781ZM53.48-13.764a.7.7,0,0,0-.781-.781H51.5a1.622,1.622,0,0,0-.966.284L47.869-12.55a1.011,1.011,0,0,0-.511.938v.682c0,.632.412.859.945.518l2.457-1.57h.085v11.2A.7.7,0,0,0,51.626,0H52.7a.7.7,0,0,0,.781-.781ZM58,.156A1.581,1.581,0,0,0,59.56-1.406,1.578,1.578,0,0,0,58-2.955a1.55,1.55,0,0,0-1.562,1.548A1.554,1.554,0,0,0,58,.156ZM67,.277c3.509.007,5.6-2.763,5.6-7.536,0-4.744-2.109-7.486-5.6-7.486s-5.6,2.734-5.6,7.486S63.494.277,67,.277Zm0-2.223c-1.811,0-2.947-1.818-2.94-5.313C64.07-10.724,65.2-12.55,67-12.55s2.94,1.825,2.947,5.291C69.95-3.764,68.821-1.946,67-1.946Z" transform="translate(49 25)" fill="#fff"/>
    <path id="Path_66" data-name="Path 66" d="M4-5.931a3.077,3.077,0,0,0,3.15-3.39A3.082,3.082,0,0,0,4-12.719a3.082,3.082,0,0,0-3.15,3.4A3.077,3.077,0,0,0,4-5.931Zm.009-1.241c-1.066,0-1.588-.95-1.588-2.153s.522-2.166,1.588-2.166c1.049,0,1.571.963,1.571,2.166S5.06-7.172,4.011-7.172ZM8.462-4.065a.424.424,0,0,0,.471.471h.608a.424.424,0,0,0,.471-.471v-3.03h.064a1.982,1.982,0,0,0,1.883,1.151c1.549,0,2.709-1.228,2.709-3.394,0-2.191-1.194-3.381-2.714-3.381a1.95,1.95,0,0,0-1.879,1.173h-.09v-.616a.424.424,0,0,0-.471-.471H8.933a.424.424,0,0,0-.471.471ZM9.982-9.346c0-1.275.548-2.1,1.545-2.1,1.032,0,1.562.877,1.562,2.1s-.539,2.132-1.562,2.132C10.538-7.215,9.982-8.071,9.982-9.346ZM18.9-5.931A2.78,2.78,0,0,0,21.624-7.42c.107-.244-.064-.424-.394-.462l-.522-.06a.593.593,0,0,0-.586.3,1.461,1.461,0,0,1-1.2.505,1.619,1.619,0,0,1-1.678-1.785h4.109a.424.424,0,0,0,.471-.471v0c0-2.307-1.387-3.321-3-3.321a3.091,3.091,0,0,0-3.112,3.411A3.055,3.055,0,0,0,18.9-5.931ZM17.249-9.967a1.58,1.58,0,0,1,1.592-1.545,1.465,1.465,0,0,1,1.5,1.545Zm7.435.056a1.35,1.35,0,0,1,1.391-1.5,1.238,1.238,0,0,1,1.28,1.4V-6.53a.424.424,0,0,0,.471.471h.608A.424.424,0,0,0,28.9-6.53v-3.715a2.188,2.188,0,0,0-2.251-2.474,1.973,1.973,0,0,0-1.96,1.2h-.077v-.646a.424.424,0,0,0-.471-.471h-.539a.424.424,0,0,0-.471.471V-6.53a.424.424,0,0,0,.471.471h.608a.424.424,0,0,0,.471-.471ZM35.915-5.944A1.982,1.982,0,0,0,37.8-7.095h.094v.565a.424.424,0,0,0,.471.471h.582a.424.424,0,0,0,.471-.471v-7.824a.424.424,0,0,0-.471-.471h-.612a.424.424,0,0,0-.471.471v2.808H37.8a1.95,1.95,0,0,0-1.879-1.173c-1.519,0-2.714,1.19-2.714,3.381C33.206-7.172,34.366-5.944,35.915-5.944Zm.432-1.271c-1.023,0-1.562-.9-1.562-2.132s.531-2.1,1.562-2.1c1,0,1.545.826,1.545,2.1S37.336-7.215,36.347-7.215Zm7.636,1.284A2.78,2.78,0,0,0,46.705-7.42c.107-.244-.064-.424-.394-.462l-.522-.06a.593.593,0,0,0-.586.3,1.461,1.461,0,0,1-1.2.505,1.619,1.619,0,0,1-1.678-1.785h4.109a.424.424,0,0,0,.471-.471v0c0-2.307-1.387-3.321-3-3.321A3.091,3.091,0,0,0,40.79-9.308,3.055,3.055,0,0,0,43.983-5.931ZM42.331-9.967a1.58,1.58,0,0,1,1.592-1.545,1.465,1.465,0,0,1,1.5,1.545Zm10.563-.873c.325-.034.5-.248.368-.552a2.477,2.477,0,0,0-2.5-1.327c-1.584,0-2.662.779-2.658,1.995,0,.959.586,1.592,1.849,1.853l1.121.235c.6.133.886.377.886.749,0,.449-.488.788-1.224.788a1.264,1.264,0,0,1-1.151-.522c-.15-.24-.291-.364-.565-.338l-.586.056c-.321.03-.5.24-.377.544a2.625,2.625,0,0,0,2.684,1.43c1.644,0,2.8-.852,2.808-2.1,0-.937-.608-1.511-1.849-1.781l-1.121-.24c-.668-.15-.933-.381-.929-.762,0-.445.488-.753,1.134-.753a1.23,1.23,0,0,1,1.04.462.565.565,0,0,0,.574.317Zm2.718-2.726a.87.87,0,0,0,.895-.839.871.871,0,0,0-.895-.843.872.872,0,0,0-.9.843A.871.871,0,0,0,55.612-13.566ZM54.833-6.53a.424.424,0,0,0,.471.471h.608a.424.424,0,0,0,.471-.471v-5.633a.424.424,0,0,0-.471-.471H55.3a.424.424,0,0,0-.471.471Zm6,3.073c1.776,0,3.086-.813,3.086-2.5v-6.21a.424.424,0,0,0-.471-.471h-.586a.424.424,0,0,0-.471.471v.616h-.086a1.964,1.964,0,0,0-1.888-1.173c-1.519,0-2.714,1.19-2.714,3.351,0,2.144,1.194,3.214,2.709,3.214A1.955,1.955,0,0,0,62.307-7.24h.077v1.246c0,.967-.642,1.365-1.524,1.365a1.673,1.673,0,0,1-1.314-.5.554.554,0,0,0-.608-.235l-.5.12c-.317.077-.462.312-.3.591A2.973,2.973,0,0,0,60.834-3.457Zm.013-3.912c-1.023,0-1.562-.8-1.562-2.007,0-1.194.531-2.072,1.562-2.072,1,0,1.545.826,1.545,2.072S61.836-7.369,60.847-7.369Zm6.215-2.542a1.35,1.35,0,0,1,1.391-1.5,1.238,1.238,0,0,1,1.28,1.4V-6.53a.424.424,0,0,0,.471.471h.608a.424.424,0,0,0,.471-.471v-3.715a2.188,2.188,0,0,0-2.251-2.474,1.973,1.973,0,0,0-1.96,1.2h-.077v-.646a.424.424,0,0,0-.471-.471h-.539a.424.424,0,0,0-.471.471V-6.53a.424.424,0,0,0,.471.471h.608a.424.424,0,0,0,.471-.471Z" transform="translate(49.213 44.465)" fill="rgba(255,255,255,0.64)"/>
  </g>
</svg>
